<svg width="27" height="31" viewBox="0 0 27 31" fill="none" xmlns="http://www.w3.org/2000/svg">
<g filter="url(#filter0_d_0_220)">
<path fill-rule="evenodd" clip-rule="evenodd" d="M24.219 18.9114C19.3878 18.2466 15.6667 14.1017 15.6667 9.08779C15.6667 6.32156 16.7993 3.81988 18.6261 2.02118C13.8137 2.3104 10 6.31405 10 11.2105C10 16.2949 14.112 20.4166 19.1843 20.4166C21.0433 20.4166 22.7732 19.8631 24.219 18.9114Z" fill="url(#paint0_radial_0_220)"/>
</g>
<circle opacity="0.2" cx="25.5834" cy="11.9211" r="1.41667" fill="#D8D8D8"/>
<path fill-rule="evenodd" clip-rule="evenodd" d="M24.1666 6.25L22.5012 7.12555L22.8193 5.27111L21.4719 3.95779L23.3339 3.68723L24.1666 2L24.9993 3.68723L26.8612 3.95779L25.5139 5.27111L25.832 7.12555L24.1666 6.25Z" fill="url(#paint1_linear_0_220)"/>
<defs>
<filter id="filter0_d_0_220" x="0" y="0.0211792" width="26.219" height="30.3954" filterUnits="userSpaceOnUse" color-interpolation-filters="sRGB">
<feFlood flood-opacity="0" result="BackgroundImageFix"/>
<feColorMatrix in="SourceAlpha" type="matrix" values="0 0 0 0 0 0 0 0 0 0 0 0 0 0 0 0 0 0 127 0" result="hardAlpha"/>
<feOffset dx="-4" dy="4"/>
<feGaussianBlur stdDeviation="3"/>
<feColorMatrix type="matrix" values="0 0 0 0 0.184314 0 0 0 0 0.188235 0 0 0 0 0.223529 0 0 0 1 0"/>
<feBlend mode="normal" in2="BackgroundImageFix" result="effect1_dropShadow_0_220"/>
<feBlend mode="normal" in="SourceGraphic" in2="effect1_dropShadow_0_220" result="shape"/>
</filter>
<radialGradient id="paint0_radial_0_220" cx="0" cy="0" r="1" gradientUnits="userSpaceOnUse" gradientTransform="translate(17.5137 5.99584) rotate(90) scale(21.571 16.6736)">
<stop stop-color="white"/>
<stop offset="1" stop-color="#DEE5EE"/>
</radialGradient>
<linearGradient id="paint1_linear_0_220" x1="21.3895" y1="3.5667" x2="21.3895" y2="9.12094" gradientUnits="userSpaceOnUse">
<stop stop-color="white"/>
<stop offset="1" stop-color="#CECECE"/>
</linearGradient>
</defs>
</svg>
